<svg width="512" height="512" viewBox="0 0 512 512" fill="none" xmlns="http://www.w3.org/2000/svg">
<g clip-path="url(#clip0_795_4580)">
<rect width="512" height="512" fill="white"/>
<rect x="-62" y="-63" width="661" height="619" fill="url(#paint0_linear_795_4580)"/>
<path d="M189.862 178.75C199.716 178.75 209.571 178.75 219.724 178.75C219.724 203.119 219.724 227.488 219.724 252.595C229.015 252.595 238.307 252.595 247.88 252.595C247.88 248.061 247.88 243.528 247.88 238.857C248.733 237.998 248.733 237.998 251.493 237.9C252.716 237.901 253.939 237.905 255.162 237.914C256.126 237.916 256.126 237.916 257.11 237.918C259.17 237.923 261.231 237.933 263.291 237.944C264.685 237.948 266.078 237.952 267.472 237.956C270.896 237.965 274.319 237.981 277.742 237.998C277.742 233.181 277.742 228.364 277.742 223.401C287.315 223.401 296.888 223.401 306.751 223.401C306.751 218.583 306.751 213.766 306.751 208.803C308.828 208.644 310.904 208.484 313.044 208.32C313.697 208.268 314.349 208.215 315.022 208.161C319.36 207.849 319.36 207.849 321.256 208.803C321.246 207.759 321.236 206.716 321.226 205.64C321.218 204.28 321.21 202.919 321.203 201.558C321.196 200.869 321.188 200.18 321.181 199.47C321.174 197.715 321.211 195.96 321.256 194.206C322.109 193.347 322.109 193.347 324.869 193.25C326.092 193.25 327.315 193.255 328.538 193.263C329.502 193.265 329.502 193.265 330.486 193.267C332.546 193.272 334.607 193.283 336.667 193.294C338.061 193.298 339.455 193.302 340.848 193.305C344.272 193.314 347.695 193.331 351.118 193.347C351.118 188.53 351.118 183.713 351.118 178.75C353.494 178.732 355.87 178.714 358.317 178.696C359.442 178.684 359.442 178.684 360.589 178.672C362.267 178.666 363.945 178.707 365.623 178.75C366.476 179.609 366.476 179.609 366.56 182.698C366.554 183.976 366.544 185.254 366.53 186.532C366.526 187.183 366.522 187.834 366.518 188.505C366.508 190.119 366.493 191.733 366.476 193.347C367.452 193.337 368.427 193.327 369.432 193.317C370.705 193.309 371.977 193.301 373.249 193.294C373.893 193.286 374.537 193.279 375.2 193.272C376.843 193.264 378.485 193.302 380.128 193.347C380.981 194.206 380.981 194.206 381.064 197.483C381.058 198.841 381.048 200.2 381.034 201.558C381.03 202.251 381.026 202.943 381.022 203.656C381.012 205.372 380.997 207.088 380.981 208.803C382.248 208.378 382.248 208.378 383.54 207.945C389.453 208.37 389.453 208.37 395.485 208.803C395.485 218.721 395.485 228.638 395.485 238.857C390.699 238.857 385.912 238.857 380.981 238.857C380.981 243.674 380.981 248.491 380.981 253.454C376.194 253.454 371.408 253.454 366.476 253.454C366.476 258.271 366.476 263.088 366.476 268.051C359.719 268.476 359.719 268.476 352.825 268.91C352.543 273.16 352.262 277.411 351.972 281.79C352.947 281.78 353.923 281.77 354.928 281.76C356.2 281.752 357.472 281.744 358.744 281.736C359.388 281.729 360.032 281.722 360.695 281.714C362.338 281.707 363.981 281.745 365.623 281.79C366.476 282.649 366.476 282.649 366.573 285.505C366.573 286.772 366.568 288.039 366.56 289.307C366.558 290.305 366.558 290.305 366.556 291.324C366.551 293.459 366.54 295.594 366.53 297.729C366.525 299.173 366.521 300.617 366.518 302.061C366.509 305.608 366.492 309.155 366.476 312.702C361.69 312.702 356.903 312.702 351.972 312.702C352.005 317.185 352.005 317.185 352.049 321.667C352.055 323.259 352.015 324.85 351.972 326.441C351.118 327.299 351.118 327.299 348.049 327.383C346.779 327.377 345.509 327.367 344.239 327.353C343.592 327.349 342.945 327.345 342.278 327.341C340.674 327.331 339.071 327.316 337.467 327.299C337.477 328.281 337.487 329.263 337.497 330.274C337.505 331.555 337.513 332.835 337.52 334.115C337.528 334.763 337.535 335.411 337.542 336.079C337.549 337.732 337.512 339.385 337.467 341.038C337.186 341.321 336.904 341.605 336.614 341.897C331.827 341.897 327.041 341.897 322.109 341.897C322.109 366.265 322.109 390.634 322.109 415.742C317.323 415.742 312.536 415.742 307.605 415.742C307.605 430.477 307.605 445.211 307.605 460.393C302.818 460.393 298.032 460.393 293.1 460.393C293.1 465.21 293.1 470.027 293.1 474.99C278.459 474.99 263.818 474.99 248.733 474.99C247.425 472.358 247.792 469.608 247.827 466.725C247.83 466.119 247.834 465.512 247.838 464.887C247.848 463.389 247.864 461.891 247.88 460.393C246.904 460.403 245.929 460.412 244.924 460.423C243.652 460.431 242.38 460.439 241.108 460.446C240.464 460.453 239.82 460.461 239.156 460.468C237.513 460.475 235.871 460.437 234.229 460.393C233.375 459.534 233.375 459.534 233.292 456.257C233.298 454.898 233.308 453.54 233.322 452.182C233.326 451.489 233.33 450.797 233.334 450.084C233.344 448.368 233.359 446.652 233.375 444.937C232.531 445.22 231.686 445.503 230.816 445.795C226.82 445.65 222.857 445.268 218.871 444.937C218.871 440.119 218.871 435.302 218.871 430.339C194.657 430.339 170.442 430.339 145.495 430.339C145.495 420.422 145.495 410.504 145.495 400.286C150.281 400.286 155.068 400.286 159.999 400.286C159.999 395.752 159.999 391.218 159.999 386.547C155.545 386.581 155.545 386.581 151.091 386.625C149.51 386.631 147.928 386.59 146.348 386.547C145.495 385.689 145.495 385.689 145.411 382.599C145.417 381.321 145.427 380.043 145.441 378.766C145.445 378.114 145.449 377.463 145.453 376.792C145.463 375.178 145.478 373.564 145.495 371.95C144.519 371.96 143.543 371.97 142.538 371.98C141.266 371.988 139.994 371.996 138.722 372.004C138.078 372.011 137.434 372.018 136.771 372.025C135.128 372.033 133.485 371.995 131.843 371.95C130.234 370.331 130.877 368.019 130.873 365.869C130.878 364.841 130.878 364.841 130.883 363.793C130.878 362.765 130.878 362.765 130.873 361.716C130.882 356.603 130.882 356.603 131.843 355.635C134.146 355.572 136.421 355.556 138.722 355.582C140.957 355.599 143.192 355.617 145.495 355.635C145.495 351.101 145.495 346.568 145.495 341.897C140.708 341.897 135.922 341.897 130.99 341.897C130.99 337.079 130.99 332.262 130.99 327.299C126.203 327.299 121.417 327.299 116.485 327.299C116.464 320.956 116.449 314.613 116.439 308.27C116.434 306.11 116.428 303.95 116.421 301.79C116.411 298.693 116.406 295.597 116.402 292.5C116.398 291.527 116.393 290.555 116.389 289.554C116.389 288.66 116.389 287.766 116.389 286.845C116.387 286.053 116.385 285.262 116.383 284.447C116.485 282.649 116.485 282.649 117.339 281.79C121.844 281.79 126.349 281.79 130.99 281.79C130.99 272.156 130.99 262.521 130.99 252.595C135.777 252.595 140.563 252.595 145.495 252.595C145.495 247.778 145.495 242.961 145.495 237.998C150.281 237.998 155.068 237.998 159.999 237.998C159.999 233.181 159.999 228.364 159.999 223.401C167.179 222.975 167.179 222.975 174.504 222.542C174.785 212.908 175.067 203.273 175.357 193.347C180.143 193.347 184.93 193.347 189.862 193.347C189.862 188.53 189.862 183.713 189.862 178.75ZM131.843 282.649C131.843 287.466 131.843 292.283 131.843 297.246C136.348 297.246 140.853 297.246 145.495 297.246C145.495 292.712 145.495 288.178 145.495 283.507C142.154 282.835 139.608 282.554 136.269 282.595C134.809 282.613 133.348 282.63 131.843 282.649ZM190.715 312.702C190.715 317.236 190.715 321.769 190.715 326.441C195.22 326.441 199.725 326.441 204.366 326.441C204.366 321.907 204.366 317.373 204.366 312.702C199.861 312.702 195.356 312.702 190.715 312.702Z" fill="#FAFAFA"/>
<path d="M189.862 178.75C199.717 178.75 209.571 178.75 219.724 178.75C219.724 203.119 219.724 227.488 219.724 252.595C229.016 252.595 238.307 252.595 247.88 252.595C247.88 248.061 247.88 243.528 247.88 238.857C248.734 237.998 248.734 237.998 251.493 237.9C252.716 237.901 253.94 237.905 255.163 237.914C256.127 237.916 256.127 237.916 257.11 237.918C259.171 237.923 261.231 237.933 263.291 237.944C264.685 237.948 266.079 237.952 267.473 237.956C270.896 237.965 274.319 237.981 277.743 237.998C277.743 233.181 277.743 228.364 277.743 223.401C287.316 223.401 296.889 223.401 306.752 223.401C306.752 218.583 306.752 213.766 306.752 208.803C308.828 208.644 310.905 208.484 313.044 208.32C313.697 208.268 314.35 208.215 315.022 208.161C319.36 207.849 319.36 207.849 321.257 208.803C321.247 207.759 321.237 206.716 321.227 205.64C321.219 204.28 321.211 202.919 321.203 201.558C321.196 200.869 321.189 200.18 321.182 199.47C321.174 197.715 321.212 195.96 321.257 194.206C322.11 193.347 322.11 193.347 324.87 193.25C326.093 193.25 327.316 193.255 328.539 193.263C329.503 193.265 329.503 193.265 330.486 193.267C332.547 193.272 334.607 193.283 336.668 193.294C338.061 193.298 339.455 193.302 340.849 193.305C344.272 193.314 347.695 193.331 351.119 193.347C351.119 188.53 351.119 183.713 351.119 178.75C353.495 178.732 355.87 178.714 358.318 178.696C359.442 178.684 359.442 178.684 360.589 178.672C362.267 178.666 363.946 178.707 365.623 178.75C366.477 179.609 366.477 179.609 366.56 182.698C366.554 183.976 366.544 185.254 366.53 186.532C366.526 187.183 366.522 187.834 366.518 188.505C366.508 190.119 366.493 191.733 366.477 193.347C367.452 193.337 368.428 193.327 369.433 193.317C370.705 193.309 371.977 193.301 373.249 193.294C373.893 193.286 374.537 193.279 375.2 193.272C376.843 193.264 378.486 193.302 380.128 193.347C380.981 194.206 380.981 194.206 381.065 197.483C381.059 198.841 381.049 200.2 381.035 201.558C381.031 202.251 381.027 202.943 381.023 203.656C381.013 205.372 380.998 207.088 380.981 208.803C381.826 208.52 382.671 208.236 383.541 207.945C389.454 208.37 389.454 208.37 395.486 208.803C395.486 218.721 395.486 228.638 395.486 238.857C390.699 238.857 385.913 238.857 380.981 238.857C380.981 243.674 380.981 248.491 380.981 253.454C376.195 253.454 371.408 253.454 366.477 253.454C366.477 258.271 366.477 263.088 366.477 268.051C359.719 268.476 359.719 268.476 352.825 268.91C352.544 273.16 352.262 277.411 351.972 281.79C352.948 281.78 353.923 281.77 354.928 281.76C356.2 281.752 357.472 281.744 358.744 281.736C359.388 281.729 360.032 281.722 360.696 281.714C362.339 281.707 363.981 281.745 365.623 281.79C366.477 282.649 366.477 282.649 366.574 285.505C366.573 286.772 366.569 288.039 366.56 289.307C366.558 290.305 366.558 290.305 366.556 291.324C366.552 293.459 366.541 295.594 366.53 297.729C366.526 299.173 366.522 300.617 366.518 302.061C366.51 305.608 366.493 309.155 366.477 312.702C361.69 312.702 356.904 312.702 351.972 312.702C352.006 317.185 352.006 317.185 352.049 321.667C352.055 323.259 352.015 324.85 351.972 326.441C351.119 327.299 351.119 327.299 348.049 327.383C346.779 327.377 345.51 327.367 344.24 327.353C343.593 327.349 342.945 327.345 342.278 327.341C340.675 327.331 339.071 327.316 337.468 327.299C337.477 328.281 337.487 329.263 337.498 330.274C337.506 331.555 337.513 332.835 337.521 334.115C337.528 334.763 337.535 335.411 337.543 336.079C337.55 337.732 337.512 339.385 337.468 341.038C337.186 341.321 336.904 341.605 336.614 341.897C331.828 341.897 327.041 341.897 322.11 341.897C322.11 366.265 322.11 390.634 322.11 415.742C317.323 415.742 312.537 415.742 307.605 415.742C307.605 430.477 307.605 445.211 307.605 460.393C302.819 460.393 298.032 460.393 293.101 460.393C293.101 465.21 293.101 470.027 293.101 474.99C278.459 474.99 263.818 474.99 248.734 474.99C247.427 472.359 247.793 469.606 247.827 466.725C247.845 464.635 247.862 462.546 247.88 460.393C243.375 460.393 238.87 460.393 234.229 460.393C234.229 455.009 234.229 449.625 234.229 444.078C229.442 444.078 224.656 444.078 219.724 444.078C219.724 439.544 219.724 435.01 219.724 430.339C234.084 430.339 248.443 430.339 263.238 430.339C263.238 435.156 263.238 439.973 263.238 444.937C258.452 444.937 253.665 444.937 248.734 444.937C248.734 449.754 248.734 454.571 248.734 459.534C263.093 459.534 277.453 459.534 292.247 459.534C292.247 454.717 292.247 449.9 292.247 444.937C287.461 444.937 282.674 444.937 277.743 444.937C277.743 439.836 277.743 434.736 277.743 429.481C282.529 429.481 287.316 429.481 292.247 429.481C292.247 424.663 292.247 419.846 292.247 414.883C297.034 414.883 301.82 414.883 306.752 414.883C306.752 405.532 306.752 396.181 306.752 386.547C301.965 386.547 297.179 386.547 292.247 386.547C292.247 383.997 292.247 381.447 292.247 378.819C289.995 378.819 287.742 378.819 285.422 378.819C285.422 376.269 285.422 373.719 285.422 371.091C292.461 371.091 299.5 371.091 306.752 371.091C306.752 366.274 306.752 361.457 306.752 356.494C297.179 356.494 287.606 356.494 277.743 356.494C277.743 353.944 277.743 351.393 277.743 348.766C275.49 348.766 273.238 348.766 270.917 348.766C270.917 346.499 270.917 344.232 270.917 341.897C277.956 341.897 284.995 341.897 292.247 341.897C292.247 332.262 292.247 322.628 292.247 312.702C287.461 312.702 282.674 312.702 277.743 312.702C277.743 293.15 277.743 273.598 277.743 253.454C268.17 253.454 258.597 253.454 248.734 253.454C248.734 258.271 248.734 263.088 248.734 268.051C238.879 268.051 229.024 268.051 218.871 268.051C218.871 263.234 218.871 258.417 218.871 253.454C214.085 253.454 209.298 253.454 204.367 253.454C204.367 238.719 204.367 223.984 204.367 208.803C199.58 208.803 194.794 208.803 189.862 208.803C189.862 213.62 189.862 218.437 189.862 223.401C185.075 223.401 180.289 223.401 175.357 223.401C175.357 213.483 175.357 203.565 175.357 193.347C180.144 193.347 184.93 193.347 189.862 193.347C189.862 188.53 189.862 183.713 189.862 178.75Z" fill="#A736FF"/>
<path d="M351.119 178.75C353.495 178.732 355.871 178.714 358.318 178.696C359.442 178.684 359.442 178.684 360.589 178.672C362.268 178.666 363.946 178.707 365.624 178.75C366.477 179.609 366.477 179.609 366.56 182.698C366.555 183.976 366.544 185.254 366.53 186.532C366.526 187.183 366.523 187.834 366.519 188.505C366.509 190.119 366.493 191.733 366.477 193.347C367.453 193.337 368.428 193.327 369.433 193.317C370.705 193.309 371.977 193.301 373.249 193.294C373.893 193.286 374.537 193.279 375.201 193.272C376.843 193.264 378.486 193.302 380.128 193.347C380.982 194.206 380.982 194.206 381.065 197.483C381.059 198.841 381.049 200.2 381.035 201.558C381.031 202.251 381.027 202.943 381.023 203.656C381.013 205.372 380.998 207.088 380.982 208.803C381.826 208.52 382.671 208.236 383.541 207.945C389.454 208.37 389.454 208.37 395.486 208.803C395.486 218.721 395.486 228.638 395.486 238.857C390.7 238.857 385.913 238.857 380.982 238.857C380.982 243.674 380.982 248.491 380.982 253.454C376.195 253.454 371.409 253.454 366.477 253.454C366.477 258.271 366.477 263.088 366.477 268.051C359.72 268.476 359.72 268.476 352.826 268.91C352.544 273.16 352.263 277.411 351.972 281.79C356.477 281.79 360.982 281.79 365.624 281.79C365.624 282.073 365.624 282.357 365.624 282.649C360.837 282.649 356.051 282.649 351.119 282.649C351.119 277.831 351.119 273.014 351.119 268.051C346.333 268.051 341.546 268.051 336.615 268.051C336.615 277.685 336.615 287.32 336.615 297.246C331.828 297.246 327.042 297.246 322.11 297.246C322.11 292.429 322.11 287.612 322.11 282.649C317.324 282.649 312.537 282.649 307.605 282.649C307.605 273.014 307.605 263.38 307.605 253.454C312.392 253.454 317.178 253.454 322.11 253.454C322.11 243.536 322.11 233.619 322.11 223.401C326.897 223.401 331.683 223.401 336.615 223.401C336.615 218.583 336.615 213.766 336.615 208.803C341.401 208.803 346.188 208.803 351.119 208.803C351.119 203.986 351.119 199.169 351.119 194.206C341.546 194.206 331.973 194.206 322.11 194.206C322.11 193.922 322.11 193.639 322.11 193.347C331.683 193.347 341.256 193.347 351.119 193.347C351.119 188.53 351.119 183.713 351.119 178.75Z" fill="#FAFAFA"/>
<path d="M336.615 268.051C341.402 268.051 346.188 268.051 351.12 268.051C351.12 272.868 351.12 277.685 351.12 282.648C356.188 282.648 361.256 282.648 366.478 282.648C366.478 292.566 366.478 302.483 366.478 312.701C361.691 312.701 356.905 312.701 351.973 312.701C352.007 317.184 352.007 317.184 352.05 321.667C352.056 323.258 352.016 324.849 351.973 326.44C351.12 327.299 351.12 327.299 348.05 327.383C346.78 327.377 345.511 327.367 344.241 327.352C343.594 327.349 342.946 327.345 342.28 327.341C340.676 327.331 339.072 327.315 337.469 327.299C337.478 328.281 337.488 329.262 337.499 330.274C337.507 331.554 337.514 332.834 337.522 334.114C337.529 334.763 337.536 335.411 337.544 336.078C337.551 337.732 337.513 339.385 337.469 341.037C337.187 341.321 336.905 341.604 336.615 341.896C331.547 341.896 326.479 341.896 321.258 341.896C321.258 365.982 321.258 390.067 321.258 414.883C316.753 414.883 312.248 414.883 307.606 414.883C307.606 390.797 307.606 366.712 307.606 341.896C302.82 341.896 298.033 341.896 293.102 341.896C293.102 332.262 293.102 322.628 293.102 312.701C297.888 312.701 302.675 312.701 307.606 312.701C307.606 302.784 307.606 292.866 307.606 282.648C312.393 282.648 317.179 282.648 322.111 282.648C322.111 287.465 322.111 292.282 322.111 297.245C326.897 297.245 331.684 297.245 336.615 297.245C336.615 287.611 336.615 277.977 336.615 268.051Z" fill="#010101"/>
<path d="M159.999 223.4C162.375 223.383 164.75 223.365 167.198 223.347C168.322 223.335 168.322 223.335 169.469 223.323C171.148 223.317 172.826 223.357 174.504 223.4C175.357 224.259 175.357 224.259 175.454 227.036C175.454 228.267 175.449 229.498 175.44 230.729C175.439 231.376 175.438 232.023 175.437 232.689C175.432 234.763 175.421 236.836 175.41 238.91C175.406 240.313 175.402 241.715 175.399 243.118C175.39 246.563 175.373 250.008 175.357 253.454C170.57 253.454 165.784 253.454 160.852 253.454C160.852 258.271 160.852 263.088 160.852 268.051C156.066 268.051 151.279 268.051 146.348 268.051C146.348 272.868 146.348 277.685 146.348 282.648C142.397 283.311 140.023 283.552 136.216 283.131C134.051 282.892 134.051 282.892 131.843 282.648C131.843 287.465 131.843 292.282 131.843 297.246C136.63 297.246 141.416 297.246 146.348 297.246C146.348 302.346 146.348 307.447 146.348 312.702C141.561 312.702 136.775 312.702 131.843 312.702C131.843 317.235 131.843 321.769 131.843 326.44C136.63 326.44 141.416 326.44 146.348 326.44C146.348 331.257 146.348 336.074 146.348 341.038C151.134 341.038 155.921 341.038 160.852 341.038C160.852 346.138 160.852 351.239 160.852 356.494C156.066 356.494 151.279 356.494 146.348 356.494C146.348 361.311 146.348 366.128 146.348 371.091C155.921 371.091 165.494 371.091 175.357 371.091C175.357 380.725 175.357 390.359 175.357 400.286C170.57 400.286 165.784 400.286 160.852 400.286C160.852 395.468 160.852 390.651 160.852 385.688C155.784 385.688 150.716 385.688 145.495 385.688C145.495 381.154 145.495 376.621 145.495 371.95C141.04 371.984 141.04 371.984 136.586 372.027C135.005 372.033 133.424 371.993 131.843 371.95C130.234 370.331 130.877 368.019 130.873 365.868C130.878 364.841 130.878 364.841 130.883 363.792C130.878 362.764 130.878 362.764 130.873 361.716C130.882 356.602 130.882 356.602 131.843 355.635C134.146 355.572 136.421 355.556 138.722 355.581C140.957 355.599 143.192 355.617 145.495 355.635C145.495 351.101 145.495 346.567 145.495 341.896C140.708 341.896 135.922 341.896 130.99 341.896C130.99 337.079 130.99 332.262 130.99 327.299C126.203 327.299 121.417 327.299 116.485 327.299C116.464 320.956 116.449 314.612 116.439 308.269C116.434 306.109 116.428 303.95 116.421 301.79C116.411 298.693 116.406 295.596 116.402 292.499C116.398 291.527 116.393 290.555 116.389 289.553C116.389 288.659 116.389 287.765 116.389 286.845C116.387 286.053 116.385 285.262 116.383 284.447C116.485 282.648 116.485 282.648 117.339 281.79C121.844 281.79 126.349 281.79 130.99 281.79C130.99 272.155 130.99 262.521 130.99 252.595C135.777 252.595 140.563 252.595 145.495 252.595C145.495 247.778 145.495 242.961 145.495 237.998C150.281 237.998 155.068 237.998 159.999 237.998C159.999 233.18 159.999 228.363 159.999 223.4Z" fill="#010101"/>
<path d="M306.752 341.896C307.034 341.896 307.315 341.896 307.605 341.896C307.605 365.982 307.605 390.068 307.605 414.883C312.11 414.883 316.615 414.883 321.257 414.883C321.257 390.798 321.257 366.712 321.257 341.896C321.538 341.896 321.82 341.896 322.11 341.896C322.11 366.265 322.11 390.634 322.11 415.742C317.323 415.742 312.537 415.742 307.605 415.742C307.605 430.477 307.605 445.211 307.605 460.392C302.819 460.392 298.032 460.392 293.101 460.392C293.101 465.21 293.101 470.027 293.101 474.99C278.46 474.99 263.819 474.99 248.734 474.99C247.427 472.359 247.793 469.606 247.827 466.725C247.845 464.635 247.862 462.546 247.881 460.392C243.376 460.392 238.871 460.392 234.229 460.392C234.229 455.009 234.229 449.625 234.229 444.078C229.443 444.078 224.656 444.078 219.725 444.078C219.725 439.544 219.725 435.01 219.725 430.339C234.084 430.339 248.444 430.339 263.238 430.339C263.238 435.156 263.238 439.973 263.238 444.936C258.452 444.936 253.665 444.936 248.734 444.936C248.734 449.754 248.734 454.571 248.734 459.534C263.093 459.534 277.453 459.534 292.248 459.534C292.248 454.717 292.248 449.9 292.248 444.936C287.461 444.936 282.675 444.936 277.743 444.936C277.743 439.836 277.743 434.736 277.743 429.48C282.529 429.48 287.316 429.48 292.248 429.48C292.248 424.663 292.248 419.846 292.248 414.883C297.034 414.883 301.821 414.883 306.752 414.883C306.752 405.532 306.752 396.181 306.752 386.547C301.966 386.547 297.179 386.547 292.248 386.547C292.248 383.997 292.248 381.447 292.248 378.819C289.995 378.819 287.743 378.819 285.422 378.819C285.422 376.269 285.422 373.719 285.422 371.091C292.461 371.091 299.5 371.091 306.752 371.091C306.752 366.274 306.752 361.457 306.752 356.494C297.179 356.494 287.606 356.494 277.743 356.494C277.743 353.944 277.743 351.393 277.743 348.766C278.306 348.766 278.869 348.766 279.449 348.766C279.449 350.749 279.449 352.733 279.449 354.776C288.459 354.776 297.469 354.776 306.752 354.776C306.752 350.526 306.752 346.276 306.752 341.896Z" fill="#A736FF"/>
<path d="M322.109 194.205C331.682 194.205 341.256 194.205 351.119 194.205C351.119 199.022 351.119 203.839 351.119 208.802C346.332 208.802 341.546 208.802 336.614 208.802C336.614 213.62 336.614 218.437 336.614 223.4C331.546 223.4 326.478 223.4 321.256 223.4C321.256 233.034 321.256 242.668 321.256 252.594C316.751 252.594 312.246 252.594 307.605 252.594C307.605 247.777 307.605 242.96 307.605 237.997C298.032 237.997 288.459 237.997 278.596 237.997C278.596 233.463 278.596 228.93 278.596 224.258C288.169 224.258 297.742 224.258 307.605 224.258C307.605 219.441 307.605 214.624 307.605 209.661C312.391 209.661 317.178 209.661 322.109 209.661C322.109 204.561 322.109 199.46 322.109 194.205Z" fill="#010101"/>
<path d="M336.616 268.051C341.402 268.051 346.189 268.051 351.12 268.051C351.12 272.868 351.12 277.685 351.12 282.648C356.188 282.648 361.256 282.648 366.478 282.648C366.478 292.566 366.478 302.483 366.478 312.701C361.691 312.701 356.905 312.701 351.973 312.701C352.007 317.184 352.007 317.184 352.05 321.667C352.056 323.258 352.016 324.849 351.973 326.44C351.12 327.299 351.12 327.299 348.051 327.383C346.781 327.377 345.511 327.367 344.241 327.352C343.594 327.349 342.947 327.345 342.28 327.341C340.676 327.331 339.072 327.315 337.469 327.299C337.479 328.281 337.489 329.262 337.499 330.274C337.507 331.554 337.515 332.834 337.522 334.114C337.529 334.763 337.536 335.411 337.544 336.078C337.551 337.732 337.513 339.385 337.469 341.037C336.616 341.896 336.616 341.896 333.359 341.98C332.01 341.974 330.66 341.964 329.31 341.95C328.622 341.946 327.934 341.942 327.225 341.938C325.521 341.928 323.816 341.912 322.111 341.896C322.111 341.613 322.111 341.329 322.111 341.037C326.616 341.037 331.121 341.037 335.762 341.037C335.762 336.504 335.762 331.97 335.762 327.299C330.976 327.299 326.189 327.299 321.258 327.299C321.258 322.198 321.258 317.098 321.258 311.843C326.326 311.843 331.394 311.843 336.616 311.843C336.616 307.309 336.616 302.775 336.616 298.104C331.829 298.104 327.043 298.104 322.111 298.104C322.111 297.821 322.111 297.537 322.111 297.245C326.898 297.245 331.684 297.245 336.616 297.245C336.616 287.611 336.616 277.977 336.616 268.051Z" fill="#010101"/>
<path d="M116.486 282.648C116.768 282.648 117.049 282.648 117.34 282.648C117.34 297.1 117.34 311.551 117.34 326.44C121.844 326.44 126.349 326.44 130.991 326.44C130.991 321.623 130.991 316.806 130.991 311.843C136.059 311.843 141.127 311.843 146.349 311.843C146.349 312.126 146.349 312.41 146.349 312.702C141.562 312.702 136.776 312.702 131.844 312.702C131.844 317.236 131.844 321.769 131.844 326.44C136.631 326.44 141.417 326.44 146.349 326.44C146.349 331.258 146.349 336.075 146.349 341.038C151.135 341.038 155.922 341.038 160.853 341.038C160.853 346.138 160.853 351.239 160.853 356.494C156.067 356.494 151.28 356.494 146.349 356.494C146.349 361.311 146.349 366.128 146.349 371.091C155.922 371.091 165.495 371.091 175.358 371.091C175.358 380.725 175.358 390.36 175.358 400.286C170.571 400.286 165.785 400.286 160.853 400.286C160.853 395.469 160.853 390.652 160.853 385.688C155.785 385.688 150.717 385.688 145.496 385.688C145.496 381.155 145.496 376.621 145.496 371.95C141.041 371.984 141.041 371.984 136.587 372.027C135.006 372.033 133.425 371.993 131.844 371.95C130.235 370.331 130.878 368.019 130.874 365.869C130.878 365.184 130.881 364.498 130.884 363.792C130.879 362.765 130.879 362.765 130.874 361.716C130.883 356.602 130.883 356.602 131.844 355.635C134.147 355.572 136.422 355.556 138.723 355.581C140.958 355.599 143.193 355.617 145.496 355.635C145.496 351.101 145.496 346.568 145.496 341.896C140.709 341.896 135.922 341.896 130.991 341.896C130.991 337.079 130.991 332.262 130.991 327.299C126.204 327.299 121.418 327.299 116.486 327.299C116.486 312.564 116.486 297.83 116.486 282.648Z" fill="#010101"/>
<path d="M146.348 401.145C151.134 401.145 155.921 401.145 160.852 401.145C160.852 405.962 160.852 410.779 160.852 415.742C165.92 415.742 170.988 415.742 176.21 415.742C176.21 410.925 176.21 406.108 176.21 401.145C180.715 401.145 185.22 401.145 189.861 401.145C189.861 405.962 189.861 410.779 189.861 415.742C199.434 415.742 209.007 415.742 218.871 415.742C218.871 420.276 218.871 424.809 218.871 429.481C194.938 429.481 171.005 429.481 146.348 429.481C146.348 420.13 146.348 410.779 146.348 401.145Z" fill="#010101"/>
<path d="M204.368 311.842C209.436 311.842 214.504 311.842 219.726 311.842C219.726 316.659 219.726 321.476 219.726 326.439C229.299 326.439 238.872 326.439 248.735 326.439C248.735 331.54 248.735 336.64 248.735 341.895C243.948 341.895 239.162 341.895 234.23 341.895C234.23 346.712 234.23 351.529 234.23 356.492C229.444 356.492 224.657 356.492 219.726 356.492C219.726 351.675 219.726 346.858 219.726 341.895C209.871 341.895 200.016 341.895 189.863 341.895C189.863 336.795 189.863 331.694 189.863 326.439C194.65 326.439 199.436 326.439 204.368 326.439C204.368 321.622 204.368 316.805 204.368 311.842Z" fill="#DCDCDC"/>
<path d="M190.715 179.607C200.006 179.607 209.298 179.607 218.871 179.607C218.871 203.693 218.871 227.779 218.871 252.594C214.366 252.594 209.861 252.594 205.219 252.594C205.096 246.625 204.975 240.655 204.855 234.686C204.814 232.662 204.773 230.637 204.731 228.613C204.494 217.141 204.314 205.679 204.366 194.205C199.861 194.205 195.356 194.205 190.715 194.205C190.715 189.388 190.715 184.571 190.715 179.607Z" fill="#010101"/>
<path d="M293.1 253.453C297.605 253.453 302.11 253.453 306.752 253.453C306.752 263.087 306.752 272.722 306.752 282.648C301.965 282.648 297.179 282.648 292.247 282.648C292.247 292.282 292.247 301.916 292.247 311.842C287.742 311.842 283.237 311.842 278.596 311.842C278.596 297.391 278.596 282.94 278.596 268.05C283.382 268.05 288.169 268.05 293.1 268.05C293.1 263.233 293.1 258.416 293.1 253.453Z" fill="#010101"/>
<path d="M219.725 430.338C234.084 430.338 248.444 430.338 263.238 430.338C263.238 435.155 263.238 439.972 263.238 444.935C258.452 444.935 253.665 444.935 248.734 444.935C248.734 449.752 248.734 454.569 248.734 459.533C243.947 459.533 239.161 459.533 234.229 459.533C234.229 454.432 234.229 449.332 234.229 444.077C229.443 444.077 224.656 444.077 219.725 444.077C219.725 439.543 219.725 435.009 219.725 430.338Z" fill="#010101"/>
<path d="M293.1 415.742C297.605 415.742 302.11 415.742 306.751 415.742C306.751 430.194 306.751 444.645 306.751 459.534C301.965 459.534 297.178 459.534 292.247 459.534C292.247 454.717 292.247 449.9 292.247 444.937C287.46 444.937 282.674 444.937 277.742 444.937C277.742 440.12 277.742 435.303 277.742 430.34C282.81 430.34 287.878 430.34 293.1 430.34C293.1 425.522 293.1 420.705 293.1 415.742Z" fill="#010101"/>
<path d="M117.34 282.648C121.845 282.648 126.35 282.648 130.991 282.648C130.991 287.466 130.991 292.283 130.991 297.246C136.059 297.246 141.127 297.246 146.349 297.246C146.349 302.063 146.349 306.88 146.349 311.843C141.281 311.843 136.213 311.843 130.991 311.843C130.991 316.66 130.991 321.477 130.991 326.44C126.486 326.44 121.981 326.44 117.34 326.44C117.34 311.989 117.34 297.538 117.34 282.648Z" fill="#010101"/>
<path d="M336.615 268.051C341.402 268.051 346.188 268.051 351.12 268.051C351.12 272.868 351.12 277.685 351.12 282.648C355.906 282.648 360.693 282.648 365.624 282.648C365.624 292.282 365.624 301.917 365.624 311.843C360.838 311.843 356.051 311.843 351.12 311.843C350.838 302.492 350.557 293.141 350.267 283.507C345.762 283.223 341.257 282.94 336.615 282.648C336.615 277.831 336.615 273.014 336.615 268.051Z" fill="#010101"/>
<path d="M248.734 460.393C263.094 460.393 277.453 460.393 292.248 460.393C292.248 464.926 292.248 469.46 292.248 474.131C277.889 474.131 263.529 474.131 248.734 474.131C248.734 469.597 248.734 465.064 248.734 460.393Z" fill="#010101"/>
<path d="M146.348 371.949C155.639 371.949 164.931 371.949 174.504 371.949C174.504 381.3 174.504 390.651 174.504 400.285C169.999 400.285 165.494 400.285 160.852 400.285C160.852 395.468 160.852 390.651 160.852 385.688C156.066 385.688 151.279 385.688 146.348 385.688C146.348 381.154 146.348 376.62 146.348 371.949Z" fill="#010101"/>
<path d="M205.219 312.701C209.724 312.701 214.229 312.701 218.871 312.701C218.871 322.052 218.871 331.403 218.871 341.037C209.579 341.037 200.288 341.037 190.715 341.037C190.715 336.503 190.715 331.97 190.715 327.299C195.501 327.299 200.288 327.299 205.219 327.299C205.219 322.481 205.219 317.664 205.219 312.701Z" fill="#010101"/>
<path d="M146.349 385.688C151.136 385.688 155.922 385.688 160.854 385.688C160.854 390.505 160.854 395.322 160.854 400.285C170.708 400.285 180.563 400.285 190.716 400.285C190.716 405.102 190.716 409.919 190.716 414.882C200.289 414.882 209.862 414.882 219.725 414.882C219.725 419.699 219.725 424.516 219.725 429.48C234.085 429.48 248.445 429.48 263.239 429.48C263.239 429.763 263.239 430.046 263.239 430.338C248.88 430.338 234.52 430.338 219.725 430.338C219.725 434.872 219.725 439.406 219.725 444.077C224.512 444.077 229.298 444.077 234.23 444.077C234.23 449.177 234.23 454.278 234.23 459.533C233.948 459.533 233.667 459.533 233.377 459.533C233.377 454.716 233.377 449.899 233.377 444.936C232.11 445.361 232.11 445.361 230.817 445.794C226.822 445.649 222.858 445.267 218.872 444.936C218.872 440.118 218.872 435.301 218.872 430.338C194.658 430.338 170.444 430.338 145.496 430.338C145.496 420.421 145.496 410.503 145.496 400.285C150.283 400.285 155.069 400.285 160.001 400.285C160.001 395.751 160.001 391.217 160.001 386.546C155.496 386.546 150.991 386.546 146.349 386.546C146.349 386.263 146.349 385.979 146.349 385.688ZM146.349 401.144C146.349 410.494 146.349 419.845 146.349 429.48C170.282 429.48 194.214 429.48 218.872 429.48C218.872 424.946 218.872 420.412 218.872 415.741C209.299 415.741 199.726 415.741 189.863 415.741C189.863 410.924 189.863 406.107 189.863 401.144C185.358 401.144 180.853 401.144 176.212 401.144C176.212 405.961 176.212 410.778 176.212 415.741C171.144 415.741 166.076 415.741 160.854 415.741C160.854 410.924 160.854 406.107 160.854 401.144C156.067 401.144 151.281 401.144 146.349 401.144Z" fill="#A736FF"/>
<path d="M336.614 282.648C339.966 282.622 339.966 282.622 343.386 282.595C344.091 282.587 344.796 282.579 345.522 282.571C347.104 282.565 348.685 282.605 350.265 282.648C351.119 283.507 351.119 283.507 351.215 286.206C351.215 287.4 351.21 288.595 351.202 289.789C351.201 290.417 351.199 291.045 351.198 291.692C351.193 293.704 351.183 295.716 351.172 297.729C351.168 299.09 351.164 300.451 351.16 301.812C351.152 305.156 351.135 308.499 351.119 311.843C355.905 311.843 360.692 311.843 365.623 311.843C365.623 302.209 365.623 292.574 365.623 282.648C365.905 282.648 366.186 282.648 366.476 282.648C366.476 292.566 366.476 302.483 366.476 312.702C361.69 312.702 356.903 312.702 351.972 312.702C351.972 317.235 351.972 321.769 351.972 326.44C351.69 326.44 351.409 326.44 351.119 326.44C350.837 321.907 350.555 317.373 350.265 312.702C345.76 312.418 341.255 312.135 336.614 311.843C336.614 307.309 336.614 302.775 336.614 298.104C331.827 298.104 327.041 298.104 322.109 298.104C322.109 297.821 322.109 297.538 322.109 297.246C326.896 297.246 331.682 297.246 336.614 297.246C336.614 292.429 336.614 287.611 336.614 282.648Z" fill="#A736FF"/>
<path d="M263.238 444.936C263.519 445.502 263.801 446.069 264.091 446.653C265.516 446.414 265.516 446.414 266.97 446.17C270.063 445.794 270.063 445.794 271.77 446.653C271.77 447.22 271.77 447.786 271.77 448.37C274.649 447.9 276.106 447.464 278.595 445.794C280.816 445.672 282.939 445.633 285.154 445.687C285.753 445.695 286.352 445.702 286.969 445.71C288.444 445.731 289.919 445.761 291.394 445.794C291.394 449.761 291.394 453.728 291.394 457.816C277.879 457.816 264.364 457.816 250.439 457.816C250.439 453.849 250.439 449.881 250.439 445.794C254.663 445.511 258.886 445.227 263.238 444.936Z" fill="#FAFAFA"/>
<path d="M219.725 253.453C229.298 253.453 238.871 253.453 248.734 253.453C248.734 258.27 248.734 263.087 248.734 268.05C239.161 268.05 229.588 268.05 219.725 268.05C219.725 263.233 219.725 258.416 219.725 253.453Z" fill="#010101"/>
<path d="M306.753 341.895C306.753 346.146 306.753 350.396 306.753 354.775C297.743 354.775 288.733 354.775 279.45 354.775C279.45 352.792 279.45 350.808 279.45 348.765C276.634 348.765 273.819 348.765 270.918 348.765C270.918 346.498 270.918 344.231 270.918 341.895C282.959 341.251 294.727 340.914 306.753 341.895Z" fill="#A736FF"/>
<path d="M293.102 282.648C297.607 282.648 302.111 282.648 306.753 282.648C306.753 292.283 306.753 301.917 306.753 311.843C302.248 311.843 297.743 311.843 293.102 311.843C293.102 302.209 293.102 292.575 293.102 282.648Z" fill="#FAFAFA"/>
<path d="M248.734 238.855C258.307 238.855 267.88 238.855 277.744 238.855C277.744 243.389 277.744 247.923 277.744 252.594C268.171 252.594 258.597 252.594 248.734 252.594C248.734 248.06 248.734 243.527 248.734 238.855Z" fill="#010101"/>
<path d="M176.211 194.205C180.716 194.205 185.221 194.205 189.862 194.205C189.862 203.839 189.862 213.474 189.862 223.4C185.357 223.4 180.852 223.4 176.211 223.4C176.211 213.766 176.211 204.131 176.211 194.205Z" fill="#010101"/>
<path d="M380.982 208.803C385.487 209.086 389.992 209.369 394.634 209.661C394.634 219.012 394.634 228.363 394.634 237.997C390.129 237.997 385.624 237.997 380.982 237.997C380.982 228.363 380.982 218.729 380.982 208.803Z" fill="#010101"/>
<path d="M321.256 341.896C321.538 341.896 321.819 341.896 322.109 341.896C322.109 366.265 322.109 390.634 322.109 415.742C317.323 415.742 312.536 415.742 307.605 415.742C307.605 430.477 307.605 445.211 307.605 460.392C302.818 460.392 298.032 460.392 293.1 460.392C293.1 465.21 293.1 470.027 293.1 474.99C278.459 474.99 263.818 474.99 248.733 474.99C248.733 474.706 248.733 474.423 248.733 474.131C263.093 474.131 277.452 474.131 292.247 474.131C292.247 469.597 292.247 465.064 292.247 460.392C277.887 460.392 263.528 460.392 248.733 460.392C248.733 464.643 248.733 468.893 248.733 473.272C248.452 473.272 248.17 473.272 247.88 473.272C247.88 469.022 247.88 464.772 247.88 460.392C243.375 460.392 238.87 460.392 234.229 460.392C234.229 460.109 234.229 459.826 234.229 459.534C258.161 459.534 282.094 459.534 306.751 459.534C306.751 445.082 306.751 430.631 306.751 415.742C302.246 415.742 297.742 415.742 293.1 415.742C293.1 420.559 293.1 425.376 293.1 430.339C288.032 430.339 282.964 430.339 277.742 430.339C277.742 430.056 277.742 429.772 277.742 429.48C282.529 429.48 287.315 429.48 292.247 429.48C292.247 424.663 292.247 419.846 292.247 414.883C297.033 414.883 301.82 414.883 306.751 414.883C306.751 405.532 306.751 396.181 306.751 386.547C301.965 386.547 297.178 386.547 292.247 386.547C292.247 383.997 292.247 381.447 292.247 378.819C292.528 378.819 292.81 378.819 293.1 378.819C293.1 381.086 293.1 383.353 293.1 385.688C297.887 385.688 302.673 385.688 307.605 385.688C307.605 395.323 307.605 404.957 307.605 414.883C312.11 414.883 316.615 414.883 321.256 414.883C321.256 390.798 321.256 366.712 321.256 341.896Z" fill="#A736FF"/>
<path d="M189.862 179.607C190.144 179.607 190.425 179.607 190.715 179.607C190.715 184.425 190.715 189.242 190.715 194.205C195.22 194.205 199.725 194.205 204.367 194.205C204.367 199.022 204.367 203.839 204.367 208.802C199.58 208.802 194.794 208.802 189.862 208.802C189.862 203.985 189.862 199.168 189.862 194.205C185.357 194.205 180.852 194.205 176.211 194.205C176.211 203.839 176.211 213.473 176.211 223.399C175.929 223.399 175.648 223.399 175.357 223.399C175.357 213.482 175.357 203.564 175.357 193.346C180.144 193.346 184.93 193.346 189.862 193.346C189.862 188.812 189.862 184.279 189.862 179.607Z" fill="#A736FF"/>
<path d="M322.109 312.701C326.896 312.701 331.682 312.701 336.614 312.701C336.614 317.235 336.614 321.769 336.614 326.44C341.4 326.44 346.187 326.44 351.119 326.44C351.119 326.723 351.119 327.007 351.119 327.299C346.614 327.299 342.109 327.299 337.467 327.299C337.501 331.781 337.501 331.781 337.544 336.264C337.55 337.855 337.51 339.446 337.467 341.037C336.614 341.896 336.614 341.896 333.358 341.98C332.008 341.974 330.658 341.964 329.308 341.95C328.62 341.946 327.932 341.942 327.224 341.938C325.519 341.928 323.814 341.912 322.109 341.896C322.109 341.612 322.109 341.329 322.109 341.037C326.614 341.037 331.119 341.037 335.761 341.037C335.761 336.22 335.761 331.403 335.761 326.44C331.256 326.44 326.751 326.44 322.109 326.44C322.109 321.906 322.109 317.372 322.109 312.701Z" fill="#A736FF"/>
<path d="M234.229 385.688C239.015 385.688 243.802 385.688 248.733 385.688C248.733 390.505 248.733 395.322 248.733 400.285C243.947 400.285 239.16 400.285 234.229 400.285C234.229 395.468 234.229 390.651 234.229 385.688Z" fill="#010101"/>
<path d="M248.734 371.09C253.521 371.09 258.307 371.09 263.239 371.09C263.239 375.907 263.239 380.724 263.239 385.687C258.452 385.687 253.666 385.687 248.734 385.687C248.734 380.87 248.734 376.053 248.734 371.09Z" fill="#010101"/>
<path d="M146.348 341.896C151.134 341.896 155.921 341.896 160.852 341.896C160.852 346.714 160.852 351.531 160.852 356.494C156.066 356.494 151.279 356.494 146.348 356.494C146.348 351.677 146.348 346.86 146.348 341.896Z" fill="#010101"/>
<path d="M365.623 237.998C370.41 237.998 375.196 237.998 380.128 237.998C380.128 242.815 380.128 247.632 380.128 252.595C375.341 252.595 370.555 252.595 365.623 252.595C365.623 247.778 365.623 242.961 365.623 237.998Z" fill="#010101"/>
<path d="M365.623 194.205C370.41 194.205 375.196 194.205 380.128 194.205C380.128 199.022 380.128 203.839 380.128 208.802C375.341 208.802 370.555 208.802 365.623 208.802C365.623 203.985 365.623 199.168 365.623 194.205Z" fill="#010101"/>
<path d="M160.854 401.145C165.64 401.145 170.427 401.145 175.358 401.145C175.358 405.678 175.358 410.212 175.358 414.883C170.572 414.883 165.785 414.883 160.854 414.883C160.854 410.349 160.854 405.816 160.854 401.145Z" fill="#FAFAFA"/>
<path d="M248.734 401.145C253.521 401.145 258.307 401.145 263.239 401.145C263.239 405.678 263.239 410.212 263.239 414.883C258.452 414.883 253.666 414.883 248.734 414.883C248.734 410.349 248.734 405.816 248.734 401.145Z" fill="#010101"/>
<path d="M131.844 327.299C136.349 327.299 140.854 327.299 145.495 327.299C145.495 331.833 145.495 336.366 145.495 341.037C140.99 341.037 136.485 341.037 131.844 341.037C131.844 336.504 131.844 331.97 131.844 327.299Z" fill="#010101"/>
<path d="M351.973 253.453C356.478 253.453 360.983 253.453 365.624 253.453C365.624 257.987 365.624 262.521 365.624 267.192C361.119 267.192 356.614 267.192 351.973 267.192C351.973 262.658 351.973 258.124 351.973 253.453Z" fill="#010101"/>
<path d="M189.863 178.75C199.718 178.75 209.572 178.75 219.726 178.75C219.726 203.119 219.726 227.488 219.726 252.595C229.017 252.595 238.309 252.595 247.882 252.595C247.882 248.062 247.882 243.528 247.882 238.857C248.163 238.857 248.445 238.857 248.735 238.857C248.735 243.674 248.735 248.491 248.735 253.454C239.162 253.454 229.589 253.454 219.726 253.454C219.726 258.271 219.726 263.088 219.726 268.051C219.444 268.051 219.163 268.051 218.872 268.051C218.872 263.234 218.872 258.417 218.872 253.454C214.086 253.454 209.299 253.454 204.368 253.454C204.368 238.719 204.368 223.985 204.368 208.803C204.649 208.803 204.931 208.803 205.221 208.803C205.221 223.255 205.221 237.706 205.221 252.595C209.726 252.595 214.231 252.595 218.872 252.595C218.872 228.51 218.872 204.424 218.872 179.609C209.299 179.609 199.726 179.609 189.863 179.609C189.863 179.325 189.863 179.042 189.863 178.75Z" fill="#A736FF"/>
<path d="M351.973 179.607C356.478 179.607 360.983 179.607 365.624 179.607C365.624 184.141 365.624 188.675 365.624 193.346C361.119 193.346 356.614 193.346 351.973 193.346C351.973 188.812 351.973 184.279 351.973 179.607Z" fill="#010101"/>
<path d="M277.742 253.453C278.024 253.453 278.305 253.453 278.595 253.453C278.595 272.722 278.595 291.99 278.595 311.842C283.1 311.842 287.605 311.842 292.247 311.842C292.247 302.208 292.247 292.574 292.247 282.648C292.528 282.648 292.81 282.648 293.1 282.648C293.1 292.282 293.1 301.916 293.1 311.842C297.605 311.842 302.11 311.842 306.751 311.842C306.751 292.574 306.751 273.305 306.751 253.453C307.033 253.453 307.314 253.453 307.605 253.453C307.605 273.005 307.605 292.557 307.605 312.701C302.818 312.701 298.032 312.701 293.1 312.701C293.1 322.052 293.1 331.403 293.1 341.037C292.818 341.037 292.537 341.037 292.247 341.037C292.247 331.686 292.247 322.335 292.247 312.701C287.46 312.701 282.674 312.701 277.742 312.701C277.742 293.149 277.742 273.597 277.742 253.453Z" fill="#A736FF"/>
<path d="M116.486 282.648C116.768 282.648 117.049 282.648 117.34 282.648C117.34 297.1 117.34 311.551 117.34 326.44C121.844 326.44 126.349 326.44 130.991 326.44C130.991 321.623 130.991 316.806 130.991 311.843C136.059 311.843 141.127 311.843 146.349 311.843C146.349 312.126 146.349 312.41 146.349 312.702C141.562 312.702 136.776 312.702 131.844 312.702C131.844 317.236 131.844 321.769 131.844 326.44C136.631 326.44 141.417 326.44 146.349 326.44C146.349 331.258 146.349 336.075 146.349 341.038C151.135 341.038 155.922 341.038 160.853 341.038C160.853 341.321 160.853 341.604 160.853 341.896C156.067 341.896 151.28 341.896 146.349 341.896C146.349 346.714 146.349 351.531 146.349 356.494C141.562 356.494 136.776 356.494 131.844 356.494C131.844 356.21 131.844 355.927 131.844 355.635C136.349 355.635 140.854 355.635 145.496 355.635C145.496 351.101 145.496 346.568 145.496 341.896C140.709 341.896 135.922 341.896 130.991 341.896C130.991 337.079 130.991 332.262 130.991 327.299C126.204 327.299 121.418 327.299 116.486 327.299C116.486 312.564 116.486 297.83 116.486 282.648ZM131.844 327.299C131.844 331.833 131.844 336.367 131.844 341.038C136.349 341.038 140.854 341.038 145.496 341.038C145.496 336.504 145.496 331.97 145.496 327.299C140.991 327.299 136.486 327.299 131.844 327.299Z" fill="#A736FF"/>
<path d="M276.037 431.197C276.6 431.197 277.163 431.197 277.744 431.197C277.744 435.731 277.744 440.265 277.744 444.936C282.53 444.936 287.317 444.936 292.248 444.936C292.248 449.753 292.248 454.57 292.248 459.533C277.889 459.533 263.529 459.533 248.734 459.533C248.734 454.716 248.734 449.899 248.734 444.936C253.521 444.936 258.307 444.936 263.239 444.936C263.239 445.219 263.239 445.503 263.239 445.795C259.016 445.795 254.792 445.795 250.441 445.795C250.441 449.762 250.441 453.729 250.441 457.816C263.956 457.816 277.471 457.816 291.395 457.816C291.395 453.849 291.395 449.882 291.395 445.795C290.429 445.877 289.464 445.958 288.469 446.043C287.204 446.139 285.94 446.236 284.676 446.331C284.039 446.387 283.402 446.442 282.746 446.499C281.082 446.62 279.412 446.643 277.744 446.653C276.037 444.936 276.037 444.936 275.87 441.763C275.882 440.495 275.902 439.227 275.93 437.959C275.938 437.312 275.946 436.664 275.954 435.997C275.974 434.397 276.005 432.797 276.037 431.197Z" fill="#FAFAFA"/>
<path d="M300.887 372.754C301.98 372.762 303.073 372.77 304.199 372.778C305.463 372.793 305.463 372.793 306.752 372.808C306.752 376.492 306.752 380.175 306.752 383.971C302.529 383.971 298.306 383.971 293.954 383.971C293.954 381.987 293.954 380.004 293.954 377.96C293.109 377.677 292.265 377.393 291.395 377.101C291.395 376.535 291.395 375.968 291.395 375.384C291.958 375.384 292.521 375.384 293.101 375.384C293.101 374.817 293.101 374.25 293.101 373.667C295.663 372.377 298.042 372.728 300.887 372.754Z" fill="#A736FF"/>
<path d="M270.064 340.178C281.045 340.603 281.045 340.603 292.248 341.036C292.248 341.32 292.248 341.603 292.248 341.895C285.209 341.895 278.17 341.895 270.917 341.895C270.917 344.162 270.917 346.429 270.917 348.764C273.17 348.764 275.422 348.764 277.743 348.764C277.743 351.315 277.743 353.865 277.743 356.492C287.316 356.492 296.889 356.492 306.752 356.492C306.752 361.31 306.752 366.127 306.752 371.09C299.713 371.09 292.674 371.09 285.422 371.09C285.422 370.806 285.422 370.523 285.422 370.231C292.179 370.231 298.937 370.231 305.899 370.231C305.899 366.264 305.899 362.297 305.899 358.21C305.055 358.214 304.211 358.219 303.341 358.223C300.215 358.239 297.089 358.249 293.963 358.257C292.609 358.261 291.255 358.267 289.901 358.275C287.957 358.285 286.013 358.29 284.069 358.294C283.158 358.3 283.158 358.3 282.229 358.307C277.937 358.308 277.937 358.308 276.037 357.351C276.037 355.084 276.037 352.817 276.037 350.482C274.585 350.508 274.585 350.508 273.104 350.535C270.064 350.482 270.064 350.482 269.211 349.623C269.01 343.36 269.01 343.36 270.064 340.178Z" fill="#FAFAFA"/>
<path d="M189.863 208.803C194.65 208.803 199.436 208.803 204.368 208.803C204.368 223.254 204.368 237.705 204.368 252.595C203.805 252.595 203.242 252.595 202.661 252.595C202.661 238.71 202.661 224.825 202.661 210.52C199.001 210.52 195.341 210.52 191.57 210.52C191.57 214.77 191.57 219.021 191.57 223.4C191.007 223.4 190.443 223.4 189.863 223.4C189.863 218.583 189.863 213.766 189.863 208.803Z" fill="#FAFAFA"/>
<path d="M189.863 310.126C194.085 310.087 198.306 310.053 202.528 310.032C203.965 310.023 205.402 310.012 206.838 309.997C208.901 309.976 210.964 309.966 213.027 309.959C213.671 309.95 214.315 309.941 214.979 309.932C216.563 309.931 218.146 310.021 219.726 310.126C220.289 310.693 220.852 311.26 221.432 311.844C221.151 316.377 220.869 320.911 220.579 325.582C229.87 325.582 239.162 325.582 248.735 325.582C248.735 325.866 248.735 326.149 248.735 326.441C239.162 326.441 229.589 326.441 219.726 326.441C219.726 321.624 219.726 316.807 219.726 311.844C216.347 312.056 216.347 312.056 212.9 312.273C205.491 312.712 198.137 312.77 190.716 312.702C190.716 317.236 190.716 321.77 190.716 326.441C190.435 326.441 190.153 326.441 189.863 326.441C189.863 321.057 189.863 315.673 189.863 310.126Z" fill="#FAFAFA"/>
<path d="M294.806 386.547C298.748 386.547 302.69 386.547 306.751 386.547C306.751 395.898 306.751 405.249 306.751 414.883C301.965 414.883 297.178 414.883 292.247 414.883C292.247 419.7 292.247 424.517 292.247 429.48C287.46 429.48 282.674 429.48 277.742 429.48C277.742 429.197 277.742 428.913 277.742 428.622C282.247 428.622 286.752 428.622 291.394 428.622C291.322 427.578 291.251 426.534 291.177 425.459C291.089 424.098 291.001 422.737 290.914 421.377C290.866 420.688 290.818 419.998 290.769 419.289C290.658 417.536 290.596 415.78 290.54 414.024C291.394 413.166 291.394 413.166 294.463 413.082C295.733 413.087 297.003 413.098 298.273 413.112C298.92 413.116 299.567 413.12 300.234 413.124C301.838 413.134 303.441 413.149 305.045 413.166C305.038 412.224 305.038 412.224 305.031 411.263C305.014 408.409 305.003 405.555 304.992 402.701C304.984 401.713 304.977 400.725 304.97 399.707C304.967 398.752 304.964 397.798 304.962 396.814C304.955 395.499 304.955 395.499 304.948 394.157C305.045 391.699 305.045 391.699 305.898 387.406C302.238 387.406 298.578 387.406 294.806 387.406C294.806 387.122 294.806 386.839 294.806 386.547Z" fill="#FAFAFA"/>
<path d="M146.349 268.051C151.136 268.051 155.922 268.051 160.854 268.051C160.854 268.334 160.854 268.618 160.854 268.909C156.63 268.909 152.407 268.909 148.055 268.909C148.055 283.077 148.055 297.245 148.055 311.843C147.492 311.843 146.929 311.843 146.349 311.843C145.786 302.209 145.223 292.574 144.643 282.648C145.206 282.648 145.769 282.648 146.349 282.648C146.349 277.831 146.349 273.014 146.349 268.051Z" fill="#FAFAFA"/>
<path d="M336.614 208.803C341.4 208.803 346.187 208.803 351.119 208.803C351.119 209.086 351.119 209.369 351.119 209.661C346.614 209.661 342.109 209.661 337.467 209.661C337.467 214.479 337.467 219.296 337.467 224.259C333.117 225.718 328.388 225.622 323.816 225.976C323.816 234.76 323.816 243.544 323.816 252.595C323.253 252.595 322.69 252.595 322.109 252.595C322.109 242.96 322.109 233.326 322.109 223.4C326.896 223.4 331.682 223.4 336.614 223.4C336.614 218.583 336.614 213.766 336.614 208.803Z" fill="#FAFAFA"/>
<path d="M293.102 282.648C297.607 282.648 302.111 282.648 306.753 282.648C306.753 292.283 306.753 301.917 306.753 311.843C302.248 311.843 297.743 311.843 293.102 311.843C293.102 302.209 293.102 292.575 293.102 282.648ZM293.955 285.224C293.955 293.442 293.955 301.659 293.955 310.126C298.751 311.237 298.751 311.237 305.9 310.984C305.9 302.2 305.9 293.416 305.9 284.366C299.717 283.897 299.717 283.897 293.955 285.224Z" fill="#FAFAFA"/>
<path d="M306.751 341.896C307.033 341.896 307.314 341.896 307.605 341.896C307.605 351.531 307.605 361.165 307.605 371.091C307.323 371.091 307.041 371.091 306.751 371.091C306.751 366.274 306.751 361.457 306.751 356.494C297.178 356.494 287.605 356.494 277.742 356.494C277.742 353.944 277.742 351.393 277.742 348.766C278.305 348.766 278.868 348.766 279.449 348.766C279.449 350.749 279.449 352.733 279.449 354.776C288.459 354.776 297.468 354.776 306.751 354.776C306.751 350.526 306.751 346.276 306.751 341.896Z" fill="#A736FF"/>
<path d="M270.064 340.178C281.045 340.603 281.045 340.603 292.248 341.036C292.248 341.32 292.248 341.603 292.248 341.895C285.209 341.895 278.17 341.895 270.917 341.895C270.917 344.162 270.917 346.429 270.917 348.764C273.17 348.764 275.422 348.764 277.743 348.764C277.743 350.748 277.743 352.731 277.743 354.775C276.037 352.199 276.037 352.199 276.037 350.482C274.585 350.508 274.585 350.508 273.104 350.535C270.064 350.482 270.064 350.482 269.211 349.623C269.01 343.36 269.01 343.36 270.064 340.178Z" fill="#FAFAFA"/>
<path d="M248.734 371.09C253.521 371.09 258.307 371.09 263.239 371.09C263.239 375.907 263.239 380.724 263.239 385.687C258.452 385.687 253.666 385.687 248.734 385.687C248.734 380.87 248.734 376.053 248.734 371.09ZM249.588 371.949C249.565 373.934 249.548 375.92 249.534 377.906C249.524 379.011 249.514 380.117 249.504 381.256C249.276 383.852 249.276 383.852 250.441 384.829C252.449 384.891 254.458 384.9 256.467 384.882C257.568 384.874 258.668 384.867 259.803 384.859C260.655 384.849 261.508 384.839 262.386 384.829C262.386 381.145 262.386 377.461 262.386 373.666C261.823 373.666 261.26 373.666 260.679 373.666C260.679 373.099 260.679 372.532 260.679 371.949C257.019 371.949 253.359 371.949 249.588 371.949Z" fill="#010101"/>
<path d="M307.605 282.648C312.392 282.648 317.178 282.648 322.11 282.648C322.11 287.466 322.11 292.283 322.11 297.246C321.828 297.246 321.547 297.246 321.257 297.246C321.257 292.712 321.257 288.178 321.257 283.507C315.62 283.928 315.62 283.928 310.165 285.224C309.602 285.224 309.039 285.224 308.459 285.224C308.459 292.308 308.459 299.392 308.459 306.691C308.177 306.691 307.896 306.691 307.605 306.691C307.605 298.757 307.605 290.823 307.605 282.648Z" fill="#010101"/>
<path d="M247.027 371.09C247.59 371.09 248.153 371.09 248.733 371.09C248.733 375.907 248.733 380.724 248.733 385.687C243.947 385.687 239.16 385.687 234.229 385.687C234.229 385.12 234.229 384.554 234.229 383.97C238.452 383.97 242.675 383.97 247.027 383.97C247.027 379.719 247.027 375.469 247.027 371.09Z" fill="#FAFAFA"/>
<path d="M263.238 430.338C264.365 430.621 265.491 430.905 266.651 431.197C266.531 433.165 266.406 435.132 266.278 437.1C266.209 438.196 266.139 439.292 266.068 440.421C265.798 443.218 265.798 443.218 264.945 444.935C264.382 444.935 263.818 444.935 263.238 444.935C263.238 440.118 263.238 435.301 263.238 430.338Z" fill="#FAFAFA"/>
<path d="M348.559 252.594C349.404 252.594 350.249 252.594 351.119 252.594C351.119 257.411 351.119 262.228 351.119 267.191C347.459 267.191 343.799 267.191 340.027 267.191C340.027 266.908 340.027 266.624 340.027 266.332C343.124 266.332 346.222 266.332 349.413 266.332C349.131 261.799 348.85 257.265 348.559 252.594Z" fill="#FAFAFA"/>
<path d="M286.275 372.809C288.246 372.809 290.217 372.809 292.248 372.809C291.403 373.234 291.403 373.234 290.541 373.667C290.541 374.801 290.541 375.934 290.541 377.102C289.134 377.102 287.726 377.102 286.275 377.102C286.275 375.685 286.275 374.268 286.275 372.809Z" fill="#A736FF"/>
<path d="M250.44 254.312C251.004 254.596 251.567 254.879 252.147 255.171C251.584 259.422 251.021 263.672 250.44 268.051C250.159 268.051 249.877 268.051 249.587 268.051C249.564 266.083 249.548 264.116 249.534 262.148C249.524 261.052 249.514 259.956 249.504 258.827C249.587 256.03 249.587 256.03 250.44 254.312Z" fill="#FAFAFA"/>
<path d="M284.57 371.09C284.851 371.09 285.133 371.09 285.423 371.09C285.455 371.628 285.487 372.166 285.52 372.72C285.576 373.422 285.632 374.123 285.689 374.847C285.739 375.544 285.788 376.241 285.839 376.96C286.131 379.143 286.131 379.143 288.836 380.535C287.183 381.018 287.183 381.018 285.423 381.394C284.57 380.535 284.57 380.535 284.486 378.385C284.496 377.518 284.506 376.652 284.516 375.759C284.524 374.89 284.532 374.021 284.54 373.126C284.55 372.454 284.559 371.782 284.57 371.09Z" fill="#FAFAFA"/>
<rect x="190.139" y="313.076" width="15.5" height="15.5806" fill="white"/>
<rect x="131.584" y="282.779" width="14.6389" height="15.5806" fill="white"/>
<path d="M12 98.6526C12 87.7988 20.7988 79 31.6526 79V79V107.445H12V98.6526Z" fill="#26252A" stroke="#26252A" stroke-width="0.805851"/>
<rect x="12" y="107.445" width="19.6526" height="14.1214" fill="#26252A" stroke="#26252A" stroke-width="0.805851"/>
<path d="M12 130.357C12 141.211 20.7988 150.01 31.6526 150.01V150.01V121.565H12V130.357Z" fill="#26252A" stroke="#26252A" stroke-width="0.805851"/>
<rect x="31.6523" y="79" width="448.695" height="71.0106" fill="#26252A"/>
<rect x="31.6523" y="79" width="448.695" height="71.0106" stroke="#26252A" stroke-width="0.805851"/>
<path d="M93.014 111.101H86.9202C86.6536 108.892 85.035 107.197 82.2547 107.197C78.9412 107.197 77.1322 109.596 77.1322 113.824V116.966C77.1322 120.87 78.5033 123.821 82.4261 123.821C85.3968 123.821 87.1107 121.936 87.1107 119.746V118.642H82.5975V114.224H93.033V119.27C93.033 124.335 89.5863 128.982 82.2738 128.982C74.2376 128.982 70.7718 123.783 70.7718 116.985V113.767C70.7718 106.854 74.847 102.055 82.2928 102.055C89.2625 102.055 92.8997 106.378 93.014 111.101ZM102.474 128.506H96.8751V102.512H103.388L110.053 117.194H110.243L116.927 102.512H123.364V128.506H117.708V112.415H117.442L111.957 124.583H108.263L102.759 112.415H102.474V128.506ZM153.938 108.168C151.767 115.214 147.673 127.344 147.616 127.516L147.101 128.887C145.254 133.819 142.493 135.647 137.485 135.647C136.475 135.647 135.142 135.533 134.476 135.38V131.172C134.838 131.248 135.561 131.305 136.228 131.305C138.513 131.305 139.56 130.601 139.77 128.887L139.884 128.411L133.143 108.168H139.865L143.483 123.402H143.712L147.463 108.168H153.938ZM164.445 107.787C170.615 107.787 174.1 111.881 174.1 117.594V118.908C174.1 125.078 170.615 128.887 164.445 128.887C158.256 128.887 154.771 125.078 154.771 118.927V117.632C154.771 111.919 158.275 107.787 164.445 107.787ZM164.445 112.357C161.874 112.357 160.96 114.776 160.96 117.537V119.099C160.96 121.727 161.836 124.316 164.445 124.316C167.035 124.316 167.911 121.746 167.911 119.099V117.537C167.911 114.738 166.978 112.357 164.445 112.357ZM196.185 108.168V128.506H190.263V125.364H189.977C189.406 126.925 187.559 128.811 184.112 128.811C180.018 128.811 177.313 126.373 177.313 121.517V108.168H183.426V119.937C183.426 123.002 185.14 123.745 186.702 123.745C188.549 123.745 190.091 122.488 190.091 119.879V108.168H196.185ZM204.312 112.986H199.932L201.17 102.512H206.578L204.312 112.986ZM208.782 128.506V108.168H214.895V111.158H215.181C215.562 109.806 217.066 107.882 219.77 107.882C220.627 107.882 221.198 107.939 221.598 108.054V113.233C221.16 113.081 220.265 113.005 219.37 113.005C216.247 113.005 215.066 114.814 215.066 117.537V128.506H208.782ZM232.829 128.887C227.116 128.887 223.193 125.535 223.193 119.061V117.442C223.193 111.12 227.249 107.787 232.6 107.787C238.275 107.787 241.932 111.539 241.932 117.537V119.575H229.154V120.26C229.154 122.85 230.753 124.393 232.848 124.393C234.657 124.393 236.009 123.498 236.257 121.993H241.798C241.494 125.192 238.866 128.887 232.829 128.887ZM229.154 116.071H236.085V116.052C236.085 113.805 234.733 112.148 232.658 112.148C230.563 112.148 229.154 113.805 229.154 116.052V116.071ZM258.433 128.811C254.453 128.811 251.71 126.506 251.71 122.641C251.71 118.927 254.281 116.566 259.023 116.566H263.727V114.871C263.727 113.214 262.698 112.3 260.984 112.3C259.251 112.3 258.223 113.252 258.147 114.643H252.453C252.567 111.329 254.605 107.863 261.061 107.863C265.936 107.863 269.744 109.92 269.744 114.947V128.506H264.012V126.068H263.746C263.06 127.478 261.422 128.811 258.433 128.811ZM260.527 124.564C262.26 124.564 263.727 123.498 263.727 121.879V119.879H260.642C258.756 119.879 257.728 120.793 257.728 122.165C257.728 123.764 259.099 124.564 260.527 124.564ZM302.056 108.168L296.895 128.506H290.42L286.954 114.776H286.745L283.298 128.506H276.766L271.644 108.168H277.814L280.385 122.507H280.632L284.003 108.168H289.735L293.143 122.507H293.391L295.962 108.168H302.056ZM312.982 128.887C307.269 128.887 303.346 125.535 303.346 119.061V117.442C303.346 111.12 307.402 107.787 312.753 107.787C318.428 107.787 322.084 111.539 322.084 117.537V119.575H309.306V120.26C309.306 122.85 310.906 124.393 313.001 124.393C314.81 124.393 316.162 123.498 316.409 121.993H321.951C321.646 125.192 319.018 128.887 312.982 128.887ZM309.306 116.071H316.238V116.052C316.238 113.805 314.886 112.148 312.81 112.148C310.716 112.148 309.306 113.805 309.306 116.052V116.071ZM324.86 114.338C324.86 109.691 328.878 107.787 333.41 107.787C338.266 107.787 341.522 110.034 341.522 114.071H336.19C336.057 112.948 335.314 111.805 333.296 111.805C331.62 111.805 330.63 112.624 330.63 113.786C330.63 115.652 333.715 115.88 336.019 116.299C339.732 116.966 342.189 118.413 342.189 122.05C342.189 126.297 338.914 128.887 333.163 128.887C327.45 128.887 324.422 126.259 324.422 122.641H330.344C330.478 123.936 331.62 124.85 333.448 124.85C335.372 124.85 336.305 123.917 336.305 122.831C336.305 121.079 333.753 120.889 331.296 120.394C327.735 119.651 324.86 118.146 324.86 114.338ZM354.296 107.787C360.466 107.787 363.951 111.881 363.951 117.594V118.908C363.951 125.078 360.466 128.887 354.296 128.887C348.107 128.887 344.622 125.078 344.622 118.927V117.632C344.622 111.919 348.126 107.787 354.296 107.787ZM354.296 112.357C351.725 112.357 350.811 114.776 350.811 117.537V119.099C350.811 121.727 351.687 124.316 354.296 124.316C356.886 124.316 357.762 121.746 357.762 119.099V117.537C357.762 114.738 356.828 112.357 354.296 112.357ZM367.336 128.506V108.168H373.258V111.348H373.563C374.058 109.806 375.753 107.863 379.009 107.863C382.113 107.863 383.96 109.349 384.608 111.481H384.855C385.445 109.787 387.54 107.863 391.006 107.863C395.138 107.863 397.5 110.586 397.5 114.566V128.506H391.387V116.414C391.387 113.843 390.073 112.833 388.397 112.833C386.531 112.833 385.331 114.071 385.331 116.547V128.506H379.504V116.528C379.504 113.729 378.076 112.833 376.476 112.833C374.819 112.833 373.429 113.862 373.429 116.509V128.506H367.336ZM410.463 128.887C404.75 128.887 400.828 125.535 400.828 119.061V117.442C400.828 111.12 404.884 107.787 410.235 107.787C415.91 107.787 419.566 111.539 419.566 117.537V119.575H406.788V120.26C406.788 122.85 408.388 124.393 410.482 124.393C412.291 124.393 413.643 123.498 413.891 121.993H419.433C419.128 125.192 416.5 128.887 410.463 128.887ZM406.788 116.071H413.72V116.052C413.72 113.805 412.368 112.148 410.292 112.148C408.197 112.148 406.788 113.805 406.788 116.052V116.071ZM422.932 102.512H429.597L428.873 120.508H423.617L422.932 102.512ZM422.932 125.878C422.932 124.05 424.436 122.869 426.264 122.869C428.093 122.869 429.578 124.05 429.578 125.878C429.578 127.706 428.093 128.887 426.264 128.887C424.436 128.887 422.932 127.706 422.932 125.878ZM433.82 102.512H440.485L439.761 120.508H434.505L433.82 102.512ZM433.82 125.878C433.82 124.05 435.324 122.869 437.152 122.869C438.981 122.869 440.466 124.05 440.466 125.878C440.466 127.706 438.981 128.887 437.152 128.887C435.324 128.887 433.82 127.706 433.82 125.878Z" fill="white"/>
<path d="M500 98.6526C500 87.7988 491.201 79 480.347 79V79V107.445H500V98.6526Z" fill="#26252A" stroke="#26252A" stroke-width="0.805851"/>
<rect width="19.6526" height="14.1214" transform="matrix(-1 0 0 1 500 107.445)" fill="#26252A" stroke="#26252A" stroke-width="0.805851"/>
<path d="M500 130.358C500 141.212 491.201 150.011 480.347 150.011V150.011V121.566H500V130.358Z" fill="#26252A"/>
<path d="M480.347 121.566H479.944V121.163H480.347V121.566ZM500 121.566V121.163H500.403V121.566H500ZM479.944 150.011V121.566H480.75V150.011H479.944ZM480.347 121.163H500V121.969H480.347V121.163ZM500.403 121.566V130.358H499.597V121.566H500.403ZM480.347 149.608C490.979 149.608 499.597 140.99 499.597 130.358H500.403C500.403 141.435 491.424 150.414 480.347 150.414V149.608Z" fill="#26252A"/>
</g>
<defs>
<linearGradient id="paint0_linear_795_4580" x1="269" y1="-0.499994" x2="269" y2="513.5" gradientUnits="userSpaceOnUse">
<stop stop-color="#4D5E8E"/>
<stop offset="1" stop-color="#F2A43E"/>
</linearGradient>
<clipPath id="clip0_795_4580">
<rect width="512" height="512" fill="white"/>
</clipPath>
</defs>
</svg>
